<?xml version="1.0" encoding="UTF-8"?>
<svg id="Layer_1" xmlns="http://www.w3.org/2000/svg" version="1.1" viewBox="0 0 566.93 566.93">
  <!-- Generator: Adobe Illustrator 29.8.3, SVG Export Plug-In . SVG Version: 2.1.1 Build 3)  -->
  <path d="M516.66,223.1c-1.38.23-.76-.33-1-1.1-3.63-11.87-8.87-21.12-21.62-25.07-16.7-5.17-38,6.51-32.81,25.73,4.04,14.96,35.52,26.11,48.13,34.37,16.99,11.13,26.3,30.26,13.34,48.72-15.66,22.3-49.15,16.27-69.12,3.53l-.57-25.36c.65,0,.95,1.36,1.16,1.9,4.34,11.36,7.29,20.92,18.5,27.71,17.63,10.68,47.41,3.03,44.34-21.24-3.25-25.65-49.22-30.24-62.03-51.59-7.59-12.65-5.55-29.63,5.82-39.27,14.84-12.58,39.29-8.91,55.15-.02l.7,21.69Z"/>
  <path d="M372.87,195.28l-4.88,1.96c-1.35,1.17-2.75,1.92-2.69,3.91.09,3.08,5.8,11.87,7.66,15.02,8.21,13.89,17.61,27.25,25.37,41.34.55.43,3.48-4.28,3.85-4.87,3.53-5.67,6.42-11.81,9.74-17.61,6.2-10.81,12.83-21.41,18.24-32.68,1.07-4.13-4.53-5.78-7.79-6.14-.19-.5,1.55-.94,1.65-.94h21.92c.03,1.84-2.55,1.51-3.87,2.02-8.21,3.18-13.92,16-18.37,23.59-7.81,13.34-15.05,27.28-22.92,40.73.91,14.51-1.59,31.33-.04,45.57.69,6.34,4.98,10.08,11.26,10.67.15.15-.61.94-.71.94h-37.01l7.79-3.76c2.19-2.48,3.47-5.06,3.87-8.39-.45-13.01,1.05-27.07.15-39.96-.08-1.07-.34-3.69-.61-4.58-1.03-3.39-9.14-13.76-11.58-17.65-8.35-13.31-16.56-29.18-25.83-41.59-2.83-3.79-6.27-5.9-11.03-6.65-.2-.48,1.1-.94,1.18-.94h34.65Z"/>
  <path d="M307.34,196.22c-3.53.06-6.87,1.06-9.2,3.77s-2.81,6.11-3.06,9.67c-1.67,24.33,1.26,50.46-.03,74.98.65,7.02-.04,14.1.5,21.19s3.23,9.32,10.19,10.08c11.13,1.22,32.12.63,41.35-6.15,7.01-5.15,7.66-11.67,11.13-18.57.34-.68.44-1.34,1.44-1.15l-3.79,28.73-85.31.02v-1.41c6.51-.37,9.73-4.25,10.37-10.61l.03-97.61c-.3-4.57-1.24-8.59-5.35-11.16l-5.99-2.25c2.49-.71,5.2-.54,7.8-.5,8.46.14,16.93.74,25.46.52,1.49-.04,3.62-1.36,4.46.45Z"/>
  <rect x="361.08" y="370.67" width="163.6" height="2.4"/>
  <rect x="54.14" y="370.67" width="153.72" height="2.39"/>
  <g>
    <path d="M211.16,318.81c-.26-1.44.44-.72,1.11-.99,5.67-2.22,8.65-3.95,9.25-10.57-1.48-32.13,2.07-66.16.03-98.08-.4-6.31-1.74-10.67-8.38-12.36-1.16-.3-3.33.54-2.95-1.05,2.01-.72,3.64,0,5.41.02,8.78.06,17.72.28,26.42-.49l6.36.94c-6.36.39-11.09,2.85-11.78,9.68.27,30.32-.42,60.77.01,90.97.15,10.65-1.69,19.75,12.24,21,.16.12-.6.94-.71.94h-37.01Z"/>
    <circle cx="241.22" cy="172.27" r="7.21"/>
    <path d="M217.63,165.22c5.54-1.03,8.78,3.41,8.15,8.62-.97,8.11-14.97,7.14-13.64-2.8.32-2.36,3.15-5.39,5.49-5.82Z"/>
  </g>
  <path d="M360.14,289.1c-.16.32-.8-.28-.46-.94.16-.32.8.28.46.94Z"/>
  <path d="M204.09,317.4c1.29.98-3.07,1.4-3.52,1.43l-31.85.22c-.39-.21-.67-.9-.46-1.18.27-.37,7.27-1.37,7.08-4.91-3.55-6.29-6.1-15.73-10.17-21.47-7.5-10.56-29.25-9.01-40.28-5.92-16.94,4.75-26.82,14.48-40.59,24-14.35,9.92-29.71,13.58-46.15,5.7,14.84,4.27,29.26,2.1,41.23-7.78,7-5.78,13.54-19.37,17.62-27.64,13.46-27.23,24.66-56.39,38.31-83.32.16-.32.96-2,1.35-1.71,9.42,20.18,18.94,40.33,28.38,60.5,6.23,13.31,11.94,26.88,18.37,40.09,4.33,8.89,9.03,21.8,20.68,21.99ZM161.65,283.44l-31.35-67.41-39.37,83.91,11.35-7.74c12.19-7,26.4-12.85,40.76-12.08,6.2.33,12.54,2.16,18.6,3.32Z"/>
  <g>
    <path d="M234.74,379.38c.7,2.26,9.76,12.92,11.76,11.55l1.19-2.81c2.11,4.4,7.51,6.06,12.03,5.89-1.23-1.8-2.83-4.01-2.83-4.01,2.53.05,5.1-.29,7.54.47.21-.81-.33-.94-.7-1.42-1.98-2.55-7.21-7.1-7.76-10.16-.12-.68-.29-1.35.68-1.15,2.53,2.68,12.51,10.13,12.51,10.13,4.83,2.37,8.21,7.11,12.25,10.61-5.58,2.39-10.09,3.7-16.28,3.32-13.53-.81-23.67-7.29-32.29-17.22-3.11-3.58-5.1-7.31-7.53-11.33,6.17-1.58,11.63-3.04,18.02-1.99,1.76.29,9.64,2.21,8.85,4.81-.5,1.64-17.7,2.43-17.43,3.3Z"/>
    <path d="M321.95,343.33c.46,11.34-.86,24.38-9.89,32.3-3.42,3-13.97,9.01-18.29,10.93-1.66.74-2.48,1.21-4.34.61.54-2.62,1.85-5.03,2.53-7.61,3.25-12.34,1.72-23.17,14.6-30.18,1.47-.8,14.82-6.64,15.4-6.05ZM315.35,350.87c-3.93,1.98-9.78,3.91-12.72,7.32-3.5,4.05-4.39,11.18-5.66,16.25.3.38,7.33-5.93,8.01-5.18.04,1.12-2.3,6.59-.71,6.12,1.22-.36,7.14-5.84,7.99-7.1.68-.99,2.8-5.76,2.15-6.57l-1.41.47c-.15-3.94,2.4-7.4,2.35-11.31Z"/>
    <path d="M284.7,326.35c.06.07-.04,1.22.27,1.85,2.96,6.02,6.81,11.41,8.81,18.07,4.01,13.3-1.45,18.29-5.17,29.96-.28.89-3.48,14.79-4.84,13.77-2.31-6.58-3.75-13.48-6.12-20.05-1.63-4.52-3.8-6.92-4.25-12.25-1-12,4.02-18.95,9.5-28.67.21-.37.96-3.74,1.8-2.68ZM284.7,338.14c-1.22-.22-.73.17-.98.67-.85,1.67-4.04,9.9-4.18,11.41-.26,2.81,2.67,3.63,1.86,6.78l-3.77-2.82c-1.07,8.64,3.81,16.03,5.66,24.04,1.3.19.72-.15.94-.7,2.97-7.39,5.75-15,8.02-22.65-.31-3.29-4.3,3.6-5.2,2.6-.08-2.24,1.45-3.78,1.76-6.01.69-5.05-2.08-9.01-4.12-13.31Z"/>
    <path d="M246.99,342.85c5.65,3.41,13.28,5.55,18.39,9.66,7.75,6.22,8.11,16.47,10.6,25.23.64,2.27,2.67,6.19,2.98,7.89.9,4.93-6.69-1.09-8.09-1.84-9.38-5.05-17-7.11-21.07-18.06-2.71-7.31-3.05-15.15-2.82-22.87ZM271.03,375.38c-.95-7.76-2.77-16.58-9.94-20.94-.65-.4-7.22-3.88-7.5-3.57.61,1.75,8.52,9.17-.48,8.95-.65,7.55,5,13.34,11.55,16.04,0-1.7-1.04-3.27-1.18-4.96-.05-.56-.31-2.06.7-1.65.81.52,6.2,6.83,6.84,6.12Z"/>
    <path d="M343.64,372.56c-9.46,21.37-33.65,36.64-56.57,25.45,7.55-7.38,15.69-14.28,24.76-19.79.16,5.15-5.63,8.46-8.25,12.49l9.43-1.18-3.3,4.71c.19.15,3.16-.54,3.78-.7,4.64-1.18,11.59-3.4,15.06-6.63.81-.75,6.4-7.58,5.68-8.22-2.58-.26-5.06.36-7.54.94l.94-3.3c-4.04-.48-7.8.71-11.78.94-.18-3.55,20.62-5.59,27.81-4.71Z"/>
  </g>
</svg>